<svg width="15" height="16" viewBox="0 0 15 16" fill="none" xmlns="http://www.w3.org/2000/svg">
<path d="M9.93 7.53467C11.0441 7.72409 12.1047 8.15035 13.04 8.78467C13.4509 9.10438 13.7808 9.51625 14.0032 9.98701C14.2256 10.4578 14.3341 10.9742 14.32 11.4947C14.329 12.0513 14.208 12.6023 13.9667 13.104C13.7254 13.6057 13.3704 14.0442 12.93 14.3847C11.4674 15.3978 9.70564 15.8876 7.93 15.7747H0V15.3547C0.495251 15.3894 0.99233 15.3213 1.46 15.1547C1.69216 15.0453 1.88191 14.8625 2 14.6347C2.13733 14.12 2.18802 13.586 2.15 13.0547V2.96467C2.19027 2.4267 2.13956 1.88578 2 1.36467C1.88442 1.13494 1.69393 0.951506 1.46 0.84467C0.991667 0.680782 0.495154 0.612767 0 0.64467V0.22467H7.45C8.72865 0.155033 10.0093 0.317659 11.23 0.704669C11.9391 0.997518 12.5474 1.49104 12.98 2.12467C13.393 2.71012 13.6164 3.40821 13.62 4.12467C13.6215 4.87152 13.3308 5.58934 12.81 6.12467C12.0004 6.85418 11.0028 7.3426 9.93 7.53467ZM5.76 8.11467V13.6747C5.74883 13.8432 5.77137 14.0122 5.82632 14.1719C5.88127 14.3316 5.96751 14.4787 6.08 14.6047C6.20674 14.7154 6.35423 14.7998 6.51388 14.853C6.67354 14.9062 6.84218 14.9272 7.01 14.9147C7.59837 14.9182 8.17864 14.7774 8.7 14.5047C9.2212 14.2513 9.65095 13.8426 9.93 13.3347C10.2092 12.8014 10.3501 12.2065 10.34 11.6047C10.3608 10.9047 10.1878 10.2125 9.84 9.60467C9.53158 9.05188 9.04002 8.62397 8.45 8.39467C7.58408 8.14151 6.6796 8.04666 5.78 8.11467H5.76ZM5.76 7.22467C6.577 7.26909 7.39431 7.14308 8.16 6.85467C8.64519 6.64369 9.05861 6.29627 9.35 5.85467C9.64336 5.33765 9.78543 4.74857 9.76 4.15467C9.78196 3.56429 9.64005 2.97935 9.35 2.46467C9.07251 2.02243 8.6683 1.67398 8.19 1.46467C7.41005 1.19398 6.58389 1.08178 5.76 1.13467V7.22467Z" fill="#497AA5"/>
</svg>
