<svg width="16" height="16" viewBox="0 0 16 16" fill="none" xmlns="http://www.w3.org/2000/svg">
<path d="M4.93214 3.36875C4.53811 3.36875 4.16021 3.52528 3.88158 3.80391C3.60296 4.08253 3.44643 4.46043 3.44643 4.85446C3.44643 5.2485 3.60296 5.6264 3.88158 5.90502C4.16021 6.18365 4.53811 6.34018 4.93214 6.34018H4.94129C5.33532 6.34018 5.71322 6.18365 5.99184 5.90502C6.27047 5.6264 6.427 5.2485 6.427 4.85446C6.427 4.46043 6.27047 4.08253 5.99184 3.80391C5.71322 3.52528 5.33532 3.36875 4.94129 3.36875H4.93214Z" fill="#497AA5"/>
<path d="M0 2.05714C0 1.51155 0.216734 0.988312 0.602523 0.602523C0.988312 0.216734 1.51155 0 2.05714 0H13.9429C14.4884 0 15.0117 0.216734 15.3975 0.602523C15.7833 0.988312 16 1.51155 16 2.05714V13.9429C16 14.4884 15.7833 15.0117 15.3975 15.3975C15.0117 15.7833 14.4884 16 13.9429 16H2.05714C1.51155 16 0.988312 15.7833 0.602523 15.3975C0.216734 15.0117 0 14.4884 0 13.9429V2.05714ZM2.05714 1.37143C1.87528 1.37143 1.70087 1.44367 1.57227 1.57227C1.44367 1.70087 1.37143 1.87528 1.37143 2.05714V11.2731L2.69806 9.536C2.89064 9.28381 3.13896 9.0796 3.42358 8.93932C3.7082 8.79905 4.02142 8.72652 4.33873 8.7274C4.65604 8.72829 4.96884 8.80256 5.25268 8.94443C5.53651 9.08629 5.78368 9.29189 5.97486 9.54514L7.08571 11.0171C7.15866 11.1138 7.25592 11.1895 7.36759 11.2364C7.47926 11.2833 7.60136 11.2998 7.72147 11.2842C7.84158 11.2686 7.95542 11.2214 8.0514 11.1475C8.14738 11.0737 8.22207 10.9757 8.26789 10.8635L10.0763 6.432C10.6862 4.93714 12.7022 4.69486 13.6475 6.00411L14.6286 7.36091V2.05714C14.6286 1.87528 14.5563 1.70087 14.4277 1.57227C14.2991 1.44367 14.1247 1.37143 13.9429 1.37143H2.05714ZM1.37143 13.9429C1.37143 14.3214 1.67863 14.6286 2.05714 14.6286H13.9429C14.1247 14.6286 14.2991 14.5563 14.4277 14.4277C14.5563 14.2991 14.6286 14.1247 14.6286 13.9429V9.70057L12.5367 6.80777C12.465 6.70868 12.3681 6.63056 12.2561 6.58152C12.1441 6.53247 12.0209 6.51428 11.8995 6.52883C11.7781 6.54338 11.6628 6.59014 11.5655 6.66426C11.4682 6.73839 11.3925 6.83718 11.3463 6.9504L9.53783 11.381C8.9344 12.8585 6.95314 13.1173 5.99131 11.8437L4.88046 10.3717C4.81671 10.2872 4.73429 10.2186 4.63964 10.1713C4.54498 10.124 4.44067 10.0993 4.33485 10.099C4.22904 10.0988 4.1246 10.123 4.02971 10.1698C3.93482 10.2166 3.85205 10.2848 3.78789 10.3689L1.50949 13.3531C1.46966 13.4042 1.42323 13.4497 1.37143 13.4885V13.9429Z" fill="#497AA5"/>
</svg>
