<svg width="8" height="12" viewBox="0 0 8 12" fill="none" xmlns="http://www.w3.org/2000/svg">
<path d="M5.02834 11.634L4.93134 11.959H0.0273438L0.150344 11.634C0.642344 11.622 0.967677 11.581 1.12634 11.511C1.38368 11.411 1.57368 11.2733 1.69634 11.098C1.89034 10.822 2.09001 10.3297 2.29534 9.62102L4.36934 2.43102C4.54534 1.83435 4.63301 1.38335 4.63234 1.07802C4.63706 0.940099 4.59707 0.804352 4.51834 0.691016C4.42862 0.577668 4.30601 0.494877 4.16734 0.454016C4.01468 0.395349 3.71268 0.366016 3.26134 0.366016L3.36734 0.0410156H7.97234L7.87634 0.366016C7.50101 0.360016 7.22268 0.401016 7.04134 0.489016C6.79405 0.592539 6.58288 0.766839 6.43434 0.990016C6.30034 1.20668 6.12468 1.68735 5.90734 2.43202L3.84134 9.62202C3.65468 10.2833 3.56134 10.705 3.56134 10.887C3.56134 11.033 3.59634 11.159 3.66634 11.265C3.74234 11.365 3.85934 11.444 4.01734 11.502C4.18134 11.5553 4.51834 11.5993 5.02834 11.634Z" fill="#497AA5"/>
</svg>
