<svg width="18" height="18" viewBox="0 0 18 18" fill="none" xmlns="http://www.w3.org/2000/svg">
<path d="M1 10.4364L9.16013 2.35944C9.58309 1.93191 10.0875 1.59163 10.6442 1.3583C11.2009 1.12496 11.7988 1.0032 12.4033 1.00006C13.0078 0.996921 13.607 1.11246 14.1661 1.34C14.7252 1.56753 15.2332 1.90255 15.6607 2.32567C16.0882 2.74878 16.4266 3.2516 16.6565 3.80502C16.8864 4.35845 17.0031 4.9515 16.9999 5.54987C16.9968 6.14823 16.8738 6.74004 16.638 7.29105C16.4023 7.84205 16.0585 8.34132 15.6266 8.75997L8.0045 16.3026C7.53232 16.7548 6.8995 17.0053 6.24249 16.9999C5.58547 16.9946 4.95691 16.7338 4.49231 16.274C4.02772 15.8141 3.76432 15.192 3.75891 14.5417C3.7535 13.8913 4.00651 13.265 4.46338 12.7976L11.7762 5.55841" stroke="#497AA5" stroke-width="1.5" stroke-linecap="round" stroke-linejoin="round"/>
</svg>
